<mxfile host="app.diagrams.net" modified="2022-05-03T18:14:15.009Z" agent="5.0 (X11)" etag="4Sxv9e6WXKvUqtnunSyD" version="17.5.0" type="github">
  <diagram id="kgpKYQtTHZ0yAKxKKP6v" name="Page-1">
    <mxGraphModel dx="1422" dy="788" grid="1" gridSize="10" guides="1" tooltips="1" connect="1" arrows="1" fold="1" page="1" pageScale="1" pageWidth="850" pageHeight="1100" math="0" shadow="0">
      <root>
        <mxCell id="0" />
        <mxCell id="1" parent="0" />
        <mxCell id="3nuBFxr9cyL0pnOWT2aG-1" value="User" style="shape=umlLifeline;perimeter=lifelinePerimeter;container=1;collapsible=0;recursiveResize=0;rounded=0;shadow=0;strokeWidth=1;" parent="1" vertex="1">
          <mxGeometry x="10" y="80" width="100" height="520" as="geometry" />
        </mxCell>
        <mxCell id="3nuBFxr9cyL0pnOWT2aG-2" value="" style="points=[];perimeter=orthogonalPerimeter;rounded=0;shadow=0;strokeWidth=1;" parent="3nuBFxr9cyL0pnOWT2aG-1" vertex="1">
          <mxGeometry x="45" y="70" width="10" height="430" as="geometry" />
        </mxCell>
        <mxCell id="3nuBFxr9cyL0pnOWT2aG-5" value=":BuyService page" style="shape=umlLifeline;perimeter=lifelinePerimeter;container=1;collapsible=0;recursiveResize=0;rounded=0;shadow=0;strokeWidth=1;" parent="1" vertex="1">
          <mxGeometry x="190" y="80" width="110" height="200" as="geometry" />
        </mxCell>
        <mxCell id="3nuBFxr9cyL0pnOWT2aG-6" value="" style="points=[];perimeter=orthogonalPerimeter;rounded=0;shadow=0;strokeWidth=1;" parent="3nuBFxr9cyL0pnOWT2aG-5" vertex="1">
          <mxGeometry x="50" y="80" width="10" height="120" as="geometry" />
        </mxCell>
        <mxCell id="3nuBFxr9cyL0pnOWT2aG-8" value="" style="verticalAlign=bottom;endArrow=block;entryX=0;entryY=0;shadow=0;strokeWidth=1;entryDx=0;entryDy=0;entryPerimeter=0;" parent="1" source="3nuBFxr9cyL0pnOWT2aG-2" target="3nuBFxr9cyL0pnOWT2aG-6" edge="1">
          <mxGeometry relative="1" as="geometry">
            <mxPoint x="165" y="160" as="sourcePoint" />
          </mxGeometry>
        </mxCell>
        <mxCell id="2_4Tgf92gbjspps2wVmF-2" value="press CONFIRM button" style="text;html=1;align=center;verticalAlign=middle;resizable=0;points=[];autosize=1;strokeColor=none;fillColor=none;" parent="1" vertex="1">
          <mxGeometry x="80" y="140" width="140" height="20" as="geometry" />
        </mxCell>
        <mxCell id="2_4Tgf92gbjspps2wVmF-3" value="CreateOrder service" style="shape=umlLifeline;perimeter=lifelinePerimeter;container=1;collapsible=0;recursiveResize=0;rounded=0;shadow=0;strokeWidth=1;" parent="1" vertex="1">
          <mxGeometry x="990" y="80" width="130" height="180" as="geometry" />
        </mxCell>
        <mxCell id="2_4Tgf92gbjspps2wVmF-4" value="" style="points=[];perimeter=orthogonalPerimeter;rounded=0;shadow=0;strokeWidth=1;" parent="2_4Tgf92gbjspps2wVmF-3" vertex="1">
          <mxGeometry x="60" y="80" width="10" height="100" as="geometry" />
        </mxCell>
        <mxCell id="2_4Tgf92gbjspps2wVmF-5" value="" style="endArrow=classic;html=1;rounded=0;" parent="1" target="2_4Tgf92gbjspps2wVmF-3" edge="1">
          <mxGeometry width="50" height="50" relative="1" as="geometry">
            <mxPoint x="250" y="172" as="sourcePoint" />
            <mxPoint x="880" y="170" as="targetPoint" />
          </mxGeometry>
        </mxCell>
        <mxCell id="2_4Tgf92gbjspps2wVmF-6" value="CreateOrder servlet" style="text;html=1;align=center;verticalAlign=middle;resizable=0;points=[];autosize=1;strokeColor=none;fillColor=none;" parent="1" vertex="1">
          <mxGeometry x="265" y="150" width="120" height="20" as="geometry" />
        </mxCell>
        <mxCell id="2_4Tgf92gbjspps2wVmF-8" value="" style="verticalAlign=bottom;endArrow=open;dashed=1;endSize=8;shadow=0;strokeWidth=1;entryX=1.5;entryY=0.683;entryDx=0;entryDy=0;entryPerimeter=0;" parent="1" source="2_4Tgf92gbjspps2wVmF-4" target="3nuBFxr9cyL0pnOWT2aG-6" edge="1">
          <mxGeometry relative="1" as="geometry">
            <mxPoint x="260" y="220" as="targetPoint" />
            <mxPoint x="700" y="190" as="sourcePoint" />
          </mxGeometry>
        </mxCell>
        <mxCell id="2_4Tgf92gbjspps2wVmF-9" value=": Confirmation Page" style="shape=umlLifeline;perimeter=lifelinePerimeter;container=1;collapsible=0;recursiveResize=0;rounded=0;shadow=0;strokeWidth=1;" parent="1" vertex="1">
          <mxGeometry x="340" y="80" width="130" height="280" as="geometry" />
        </mxCell>
        <mxCell id="2_4Tgf92gbjspps2wVmF-10" value="" style="points=[];perimeter=orthogonalPerimeter;rounded=0;shadow=0;strokeWidth=1;" parent="2_4Tgf92gbjspps2wVmF-9" vertex="1">
          <mxGeometry x="60" y="170" width="10" height="110" as="geometry" />
        </mxCell>
        <mxCell id="2_4Tgf92gbjspps2wVmF-12" value="display Confirmation page" style="text;html=1;align=center;verticalAlign=middle;resizable=0;points=[];autosize=1;strokeColor=none;fillColor=none;" parent="2_4Tgf92gbjspps2wVmF-9" vertex="1">
          <mxGeometry x="-90" y="170" width="150" height="20" as="geometry" />
        </mxCell>
        <mxCell id="2_4Tgf92gbjspps2wVmF-20" value="display Landing page" style="text;html=1;align=center;verticalAlign=middle;resizable=0;points=[];autosize=1;strokeColor=none;fillColor=none;" parent="2_4Tgf92gbjspps2wVmF-9" vertex="1">
          <mxGeometry x="70" y="250" width="130" height="20" as="geometry" />
        </mxCell>
        <mxCell id="2_4Tgf92gbjspps2wVmF-11" value="" style="endArrow=classic;html=1;rounded=0;entryX=-0.4;entryY=0.236;entryDx=0;entryDy=0;entryPerimeter=0;" parent="1" source="3nuBFxr9cyL0pnOWT2aG-6" target="2_4Tgf92gbjspps2wVmF-10" edge="1">
          <mxGeometry width="50" height="50" relative="1" as="geometry">
            <mxPoint x="260" y="270" as="sourcePoint" />
            <mxPoint x="320" y="270" as="targetPoint" />
          </mxGeometry>
        </mxCell>
        <mxCell id="2_4Tgf92gbjspps2wVmF-13" value="" style="verticalAlign=bottom;endArrow=open;dashed=1;endSize=8;shadow=0;strokeWidth=1;exitX=0.05;exitY=0.35;exitDx=0;exitDy=0;exitPerimeter=0;" parent="1" source="2_4Tgf92gbjspps2wVmF-10" target="3nuBFxr9cyL0pnOWT2aG-2" edge="1">
          <mxGeometry relative="1" as="geometry">
            <mxPoint x="70" y="290" as="targetPoint" />
            <mxPoint x="400" y="290" as="sourcePoint" />
          </mxGeometry>
        </mxCell>
        <mxCell id="2_4Tgf92gbjspps2wVmF-14" value="" style="endArrow=classic;html=1;rounded=0;entryX=-0.35;entryY=0.555;entryDx=0;entryDy=0;entryPerimeter=0;" parent="1" target="2_4Tgf92gbjspps2wVmF-10" edge="1">
          <mxGeometry width="50" height="50" relative="1" as="geometry">
            <mxPoint x="70" y="311" as="sourcePoint" />
            <mxPoint x="390" y="320" as="targetPoint" />
          </mxGeometry>
        </mxCell>
        <mxCell id="2_4Tgf92gbjspps2wVmF-15" value="press ACCESS button" style="text;html=1;align=center;verticalAlign=middle;resizable=0;points=[];autosize=1;strokeColor=none;fillColor=none;" parent="1" vertex="1">
          <mxGeometry x="170" y="295" width="130" height="20" as="geometry" />
        </mxCell>
        <mxCell id="2_4Tgf92gbjspps2wVmF-17" value="User service" style="shape=umlLifeline;perimeter=lifelinePerimeter;container=1;collapsible=0;recursiveResize=0;rounded=0;shadow=0;strokeWidth=1;" parent="1" vertex="1">
          <mxGeometry x="830" y="80" width="100" height="400" as="geometry" />
        </mxCell>
        <mxCell id="2_4Tgf92gbjspps2wVmF-18" value="" style="points=[];perimeter=orthogonalPerimeter;rounded=0;shadow=0;strokeWidth=1;" parent="2_4Tgf92gbjspps2wVmF-17" vertex="1">
          <mxGeometry x="45" y="360" width="10" height="40" as="geometry" />
        </mxCell>
        <mxCell id="2_4Tgf92gbjspps2wVmF-19" value="" style="endArrow=classic;html=1;rounded=0;entryX=-0.4;entryY=0.075;entryDx=0;entryDy=0;entryPerimeter=0;" parent="1" target="2_4Tgf92gbjspps2wVmF-26" edge="1">
          <mxGeometry width="50" height="50" relative="1" as="geometry">
            <mxPoint x="410" y="355" as="sourcePoint" />
            <mxPoint x="530" y="353" as="targetPoint" />
          </mxGeometry>
        </mxCell>
        <mxCell id="2_4Tgf92gbjspps2wVmF-25" value=": Landing Page" style="shape=umlLifeline;perimeter=lifelinePerimeter;container=1;collapsible=0;recursiveResize=0;rounded=0;shadow=0;strokeWidth=1;" parent="1" vertex="1">
          <mxGeometry x="500" y="80" width="110" height="480" as="geometry" />
        </mxCell>
        <mxCell id="2_4Tgf92gbjspps2wVmF-26" value="" style="points=[];perimeter=orthogonalPerimeter;rounded=0;shadow=0;strokeWidth=1;" parent="2_4Tgf92gbjspps2wVmF-25" vertex="1">
          <mxGeometry x="50" y="260" width="10" height="210" as="geometry" />
        </mxCell>
        <mxCell id="p9JeNvaNSxOyfhmn88M_-26" value="display Landing page" style="text;whiteSpace=wrap;html=1;" vertex="1" parent="2_4Tgf92gbjspps2wVmF-25">
          <mxGeometry x="70" y="440" width="140" height="30" as="geometry" />
        </mxCell>
        <mxCell id="2_4Tgf92gbjspps2wVmF-29" value="CheckTrackedOrder servlet" style="text;html=1;align=center;verticalAlign=middle;resizable=0;points=[];autosize=1;strokeColor=none;fillColor=none;" parent="1" vertex="1">
          <mxGeometry x="590" y="480" width="160" height="20" as="geometry" />
        </mxCell>
        <mxCell id="2_4Tgf92gbjspps2wVmF-30" value="" style="verticalAlign=bottom;endArrow=open;dashed=1;endSize=8;shadow=0;strokeWidth=1;exitX=-0.1;exitY=0.206;exitDx=0;exitDy=0;exitPerimeter=0;" parent="1" source="2_4Tgf92gbjspps2wVmF-26" target="3nuBFxr9cyL0pnOWT2aG-1" edge="1">
          <mxGeometry relative="1" as="geometry">
            <mxPoint x="254.5" y="196" as="targetPoint" />
            <mxPoint x="795" y="196" as="sourcePoint" />
          </mxGeometry>
        </mxCell>
        <mxCell id="2_4Tgf92gbjspps2wVmF-33" value="" style="endArrow=classic;html=1;rounded=0;exitX=0;exitY=1.25;exitDx=0;exitDy=0;exitPerimeter=0;" parent="1" source="2_4Tgf92gbjspps2wVmF-34" target="2_4Tgf92gbjspps2wVmF-17" edge="1">
          <mxGeometry width="50" height="50" relative="1" as="geometry">
            <mxPoint x="545" y="444" as="sourcePoint" />
            <mxPoint x="690" y="444" as="targetPoint" />
          </mxGeometry>
        </mxCell>
        <mxCell id="2_4Tgf92gbjspps2wVmF-34" value="CheckLogin servlet" style="text;html=1;align=center;verticalAlign=middle;resizable=0;points=[];autosize=1;strokeColor=none;fillColor=none;" parent="1" vertex="1">
          <mxGeometry x="560" y="420" width="120" height="20" as="geometry" />
        </mxCell>
        <mxCell id="p9JeNvaNSxOyfhmn88M_-6" value="" style="endArrow=classic;html=1;rounded=0;" edge="1" parent="1">
          <mxGeometry width="50" height="50" relative="1" as="geometry">
            <mxPoint x="70" y="410" as="sourcePoint" />
            <mxPoint x="540" y="410" as="targetPoint" />
          </mxGeometry>
        </mxCell>
        <mxCell id="p9JeNvaNSxOyfhmn88M_-7" value="press LOGIN button" style="text;whiteSpace=wrap;html=1;" vertex="1" parent="1">
          <mxGeometry x="230" y="390" width="140" height="30" as="geometry" />
        </mxCell>
        <mxCell id="p9JeNvaNSxOyfhmn88M_-11" value="" style="verticalAlign=bottom;endArrow=open;dashed=1;endSize=8;shadow=0;strokeWidth=1;entryX=1;entryY=0.605;entryDx=0;entryDy=0;entryPerimeter=0;" edge="1" parent="1" source="2_4Tgf92gbjspps2wVmF-17" target="2_4Tgf92gbjspps2wVmF-26">
          <mxGeometry relative="1" as="geometry">
            <mxPoint x="140" y="490" as="targetPoint" />
            <mxPoint x="690" y="461" as="sourcePoint" />
          </mxGeometry>
        </mxCell>
        <mxCell id="p9JeNvaNSxOyfhmn88M_-12" value="Session" style="shape=umlLifeline;perimeter=lifelinePerimeter;container=1;collapsible=0;recursiveResize=0;rounded=0;shadow=0;strokeWidth=1;" vertex="1" parent="1">
          <mxGeometry x="1150" y="80" width="130" height="450" as="geometry" />
        </mxCell>
        <mxCell id="p9JeNvaNSxOyfhmn88M_-13" value="" style="points=[];perimeter=orthogonalPerimeter;rounded=0;shadow=0;strokeWidth=1;" vertex="1" parent="p9JeNvaNSxOyfhmn88M_-12">
          <mxGeometry x="60" y="110" width="10" height="340" as="geometry" />
        </mxCell>
        <mxCell id="p9JeNvaNSxOyfhmn88M_-14" value="Text" style="text;html=1;align=center;verticalAlign=middle;resizable=0;points=[];autosize=1;strokeColor=none;fillColor=none;" vertex="1" parent="1">
          <mxGeometry x="360" y="620" width="40" height="20" as="geometry" />
        </mxCell>
        <mxCell id="p9JeNvaNSxOyfhmn88M_-15" value="" style="endArrow=classic;html=1;rounded=0;" edge="1" parent="1" target="p9JeNvaNSxOyfhmn88M_-12">
          <mxGeometry width="50" height="50" relative="1" as="geometry">
            <mxPoint x="560" y="500" as="sourcePoint" />
            <mxPoint x="550" y="420" as="targetPoint" />
          </mxGeometry>
        </mxCell>
        <mxCell id="p9JeNvaNSxOyfhmn88M_-18" value="" style="verticalAlign=bottom;endArrow=open;dashed=1;endSize=8;shadow=0;strokeWidth=1;entryX=1;entryY=0.605;entryDx=0;entryDy=0;entryPerimeter=0;" edge="1" parent="1" source="p9JeNvaNSxOyfhmn88M_-12">
          <mxGeometry relative="1" as="geometry">
            <mxPoint x="560" y="520" as="targetPoint" />
            <mxPoint x="1050" y="520" as="sourcePoint" />
          </mxGeometry>
        </mxCell>
        <mxCell id="p9JeNvaNSxOyfhmn88M_-19" value=": Home page" style="shape=umlLifeline;perimeter=lifelinePerimeter;container=1;collapsible=0;recursiveResize=0;rounded=0;shadow=0;strokeWidth=1;" vertex="1" parent="1">
          <mxGeometry x="670" y="80" width="100" height="510" as="geometry" />
        </mxCell>
        <mxCell id="p9JeNvaNSxOyfhmn88M_-20" value="" style="points=[];perimeter=orthogonalPerimeter;rounded=0;shadow=0;strokeWidth=1;" vertex="1" parent="p9JeNvaNSxOyfhmn88M_-19">
          <mxGeometry x="45" y="460" width="10" height="50" as="geometry" />
        </mxCell>
        <mxCell id="p9JeNvaNSxOyfhmn88M_-21" value="" style="endArrow=classic;html=1;rounded=0;exitX=1.1;exitY=0.41;exitDx=0;exitDy=0;exitPerimeter=0;" edge="1" parent="1" source="2_4Tgf92gbjspps2wVmF-4" target="p9JeNvaNSxOyfhmn88M_-12">
          <mxGeometry width="50" height="50" relative="1" as="geometry">
            <mxPoint x="960" y="310" as="sourcePoint" />
            <mxPoint x="980" y="330" as="targetPoint" />
          </mxGeometry>
        </mxCell>
        <mxCell id="p9JeNvaNSxOyfhmn88M_-22" value="&lt;div&gt;Setattribute()&lt;/div&gt;" style="text;whiteSpace=wrap;html=1;" vertex="1" parent="1">
          <mxGeometry x="1100" y="180" width="130" height="30" as="geometry" />
        </mxCell>
        <mxCell id="p9JeNvaNSxOyfhmn88M_-23" value="" style="verticalAlign=bottom;endArrow=open;dashed=1;endSize=8;shadow=0;strokeWidth=1;exitX=-0.1;exitY=0.088;exitDx=0;exitDy=0;exitPerimeter=0;" edge="1" parent="1" source="p9JeNvaNSxOyfhmn88M_-13" target="2_4Tgf92gbjspps2wVmF-3">
          <mxGeometry relative="1" as="geometry">
            <mxPoint x="570" y="471" as="targetPoint" />
            <mxPoint x="889.5" y="471" as="sourcePoint" />
          </mxGeometry>
        </mxCell>
        <mxCell id="p9JeNvaNSxOyfhmn88M_-24" value="" style="endArrow=classic;html=1;rounded=0;exitX=1.4;exitY=0.986;exitDx=0;exitDy=0;exitPerimeter=0;entryX=0.49;entryY=0.914;entryDx=0;entryDy=0;entryPerimeter=0;" edge="1" parent="1" source="2_4Tgf92gbjspps2wVmF-26" target="p9JeNvaNSxOyfhmn88M_-19">
          <mxGeometry width="50" height="50" relative="1" as="geometry">
            <mxPoint x="570" y="455" as="sourcePoint" />
            <mxPoint x="889.5" y="455" as="targetPoint" />
          </mxGeometry>
        </mxCell>
        <mxCell id="p9JeNvaNSxOyfhmn88M_-25" value="" style="verticalAlign=bottom;endArrow=open;dashed=1;endSize=8;shadow=0;strokeWidth=1;exitX=0.1;exitY=0.7;exitDx=0;exitDy=0;exitPerimeter=0;" edge="1" parent="1" source="p9JeNvaNSxOyfhmn88M_-20" target="3nuBFxr9cyL0pnOWT2aG-1">
          <mxGeometry relative="1" as="geometry">
            <mxPoint x="570" y="477.04999999999995" as="targetPoint" />
            <mxPoint x="889.5" y="477.04999999999995" as="sourcePoint" />
          </mxGeometry>
        </mxCell>
      </root>
    </mxGraphModel>
  </diagram>
</mxfile>
